<svg width="35" height="35" viewBox="0 0 35 35" fill="none" xmlns="http://www.w3.org/2000/svg">
<g clip-path="url(#clip0_3_20)">
<path fill-rule="evenodd" clip-rule="evenodd" d="M23.8606 21.9881C25.1663 17.111 22.0621 12.0575 16.9481 10.6871C11.204 9.14711 3.0625 13.1412 4.77077 17.9712C5.28635 19.4304 6.29731 19.7763 8.38115 19.806L8.52654 19.8087C10.0073 19.8262 10.5067 19.9433 10.7854 20.3956C11.0735 20.864 11.0762 21.4133 10.8581 22.8025C10.7679 23.3706 10.7396 23.5685 10.706 23.8713C10.5108 25.6213 10.7962 26.9325 11.904 28.1252C15.3825 31.8729 22.3879 27.4804 23.8606 21.9881ZM6.03885 17.5229C4.81654 14.0633 11.7156 10.679 16.5994 11.9875C21.0108 13.1694 23.6694 17.4973 22.5602 21.6394C21.3163 26.2783 15.4431 29.9613 12.8908 27.2125C12.0912 26.351 11.8879 25.4181 12.0427 24.0221C12.075 23.7462 12.1019 23.5604 12.1881 23.0125C12.4573 21.2962 12.4533 20.541 11.9323 19.6915C11.3063 18.6738 10.5067 18.4881 8.54404 18.4638L8.4 18.4612C6.83981 18.4396 6.29731 18.2538 6.03885 17.5229Z" fill="black"/>
<path d="M10.4327 16.8269C9.98641 16.8269 9.55842 16.6496 9.24285 16.3341C8.92728 16.0185 8.75 15.5905 8.75 15.1442C8.75 14.698 8.92728 14.27 9.24285 13.9544C9.55842 13.6388 9.98641 13.4615 10.4327 13.4615C10.879 13.4615 11.307 13.6388 11.6225 13.9544C11.9381 14.27 12.1154 14.698 12.1154 15.1442C12.1154 15.5905 11.9381 16.0185 11.6225 16.3341C11.307 16.6496 10.879 16.8269 10.4327 16.8269ZM15.8173 16.8269C15.371 16.8269 14.943 16.6496 14.6275 16.3341C14.3119 16.0185 14.1346 15.5905 14.1346 15.1442C14.1346 14.698 14.3119 14.27 14.6275 13.9544C14.943 13.6388 15.371 13.4615 15.8173 13.4615C16.2636 13.4615 16.6916 13.6388 17.0071 13.9544C17.3227 14.27 17.5 14.698 17.5 15.1442C17.5 15.5905 17.3227 16.0185 17.0071 16.3341C16.6916 16.6496 16.2636 16.8269 15.8173 16.8269ZM19.1827 20.8654C18.7364 20.8654 18.3084 20.6881 17.9928 20.3725C17.6773 20.057 17.5 19.629 17.5 19.1827C17.5 18.7364 17.6773 18.3084 17.9928 17.9928C18.3084 17.6773 18.7364 17.5 19.1827 17.5C19.629 17.5 20.057 17.6773 20.3725 17.9928C20.6881 18.3084 20.8654 18.7364 20.8654 19.1827C20.8654 19.629 20.6881 20.057 20.3725 20.3725C20.057 20.6881 19.629 20.8654 19.1827 20.8654ZM17.1635 25.5769C16.7172 25.5769 16.2892 25.3996 15.9736 25.0841C15.6581 24.7685 15.4808 24.3405 15.4808 23.8942C15.4808 23.448 15.6581 23.02 15.9736 22.7044C16.2892 22.3888 16.7172 22.2115 17.1635 22.2115C17.6097 22.2115 18.0377 22.3888 18.3533 22.7044C18.6689 23.02 18.8462 23.448 18.8462 23.8942C18.8462 24.3405 18.6689 24.7685 18.3533 25.0841C18.0377 25.3996 17.6097 25.5769 17.1635 25.5769ZM22.0365 8.89134C22.1962 8.80583 22.3714 8.7534 22.5517 8.73718C22.7321 8.72097 22.9139 8.74131 23.0862 8.79699C23.2585 8.85266 23.4178 8.94253 23.5545 9.06121C23.6913 9.17989 23.8027 9.32495 23.8821 9.48769L29.3919 20.7954C29.4839 20.9986 29.4951 21.2293 29.4231 21.4405C29.3511 21.6516 29.2014 21.8275 29.0044 21.9322C28.8074 22.037 28.5779 22.0628 28.3626 22.0044C28.1473 21.946 27.9623 21.8078 27.8452 21.6179L21.5075 10.7544C21.4168 10.5981 21.3585 10.425 21.3361 10.2456C21.3137 10.0662 21.3277 9.88416 21.3772 9.71028C21.4267 9.53641 21.5107 9.37428 21.6242 9.23358C21.7377 9.09288 21.8771 8.97649 22.0365 8.89134Z" fill="black"/>
<path fill-rule="evenodd" clip-rule="evenodd" d="M19.5704 8.72846C20.2246 9.96019 21.3271 10.3048 22.3933 9.73808C23.4581 9.17269 23.7906 8.06481 23.135 6.83308C22.3852 5.42231 20.7819 4.14346 19.7185 4.7075C18.655 5.27154 18.8192 7.31769 19.5704 8.72846ZM20.7577 8.09577C20.5204 7.61673 20.3743 7.09769 20.3269 6.56519C20.3072 6.34248 20.3154 6.11819 20.3512 5.8975L20.3754 5.90961C20.4427 5.94192 20.6513 6.03885 20.9179 6.25154C21.3244 6.57596 21.7283 7.05385 21.9463 7.46442C22.2546 8.04327 22.1671 8.33404 21.7606 8.54942C21.3567 8.76481 21.066 8.67327 20.7577 8.09577Z" fill="black"/>
<path fill-rule="evenodd" clip-rule="evenodd" d="M17.5 32.9808C26.0494 32.9808 32.9808 26.0494 32.9808 17.5C32.9808 8.95058 26.0494 2.01923 17.5 2.01923C8.95056 2.01923 2.01922 8.95058 2.01922 17.5C2.01922 26.0494 8.95056 32.9808 17.5 32.9808ZM17.5 34.3269C26.7938 34.3269 34.3269 26.7938 34.3269 17.5C34.3269 8.20615 26.7938 0.673077 17.5 0.673077C8.20614 0.673077 0.673065 8.20615 0.673065 17.5C0.673065 26.7938 8.20614 34.3269 17.5 34.3269Z" fill="black"/>
</g>
<defs>
<clipPath id="clip0_3_20">
<rect width="35" height="35" fill="white"/>
</clipPath>
</defs>
</svg>
