<svg width="25" height="25" viewBox="0 0 25 25" fill="none" xmlns="http://www.w3.org/2000/svg">
<path fill-rule="evenodd" clip-rule="evenodd" d="M5.20832 1.04166C4.10325 1.04166 3.04345 1.48064 2.26205 2.26205C1.48064 3.04345 1.04166 4.10325 1.04166 5.20832V19.7917C1.04166 20.8967 1.48064 21.9565 2.26205 22.7379C3.04345 23.5193 4.10325 23.9583 5.20832 23.9583H19.7917C20.8967 23.9583 21.9565 23.5193 22.7379 22.7379C23.5193 21.9565 23.9583 20.8967 23.9583 19.7917V5.20832C23.9583 4.10325 23.5193 3.04345 22.7379 2.26205C21.9565 1.48064 20.8967 1.04166 19.7917 1.04166H5.20832ZM4.86041 4.68749C4.74638 4.72987 4.64382 4.79829 4.5609 4.8873C4.47798 4.97631 4.417 5.08346 4.38281 5.20021C4.34861 5.31695 4.34215 5.44007 4.36394 5.55975C4.38574 5.67943 4.43518 5.79237 4.50832 5.88957L10.3562 13.65L4.19478 20.2594L4.14895 20.3125H6.28124L11.3125 14.9177L15.1792 20.051C15.2689 20.1699 15.3907 20.2606 15.5302 20.3125H20.1364C20.2503 20.2699 20.3527 20.2013 20.4353 20.1122C20.518 20.0231 20.5788 19.9159 20.6128 19.7992C20.6468 19.6825 20.653 19.5594 20.6311 19.4398C20.6092 19.3203 20.5596 19.2075 20.4865 19.1104L14.6385 11.35L20.851 4.68749H18.7156L13.6844 10.0833L9.81562 4.94999C9.72605 4.83078 9.60424 4.7397 9.46457 4.68749H4.86041ZM16.1937 18.8L6.69895 6.19999H8.80207L18.2958 18.799L16.1937 18.8Z" fill="black"/>
</svg>
