<svg width="25" height="25" viewBox="0 0 25 25" fill="none" xmlns="http://www.w3.org/2000/svg">
<g clip-path="url(#clip0_7_2)">
<path d="M19.1406 0H5.85938C2.62333 0 0 2.62333 0 5.85938V19.1406C0 22.3767 2.62333 25 5.85938 25H19.1406C22.3767 25 25 22.3767 25 19.1406V5.85938C25 2.62333 22.3767 0 19.1406 0Z" fill="#5865F2"/>
<mask id="mask0_7_2" style="mask-type:luminance" maskUnits="userSpaceOnUse" x="2" y="4" width="21" height="17">
<path d="M2.73438 4.98047H22.2656V20.1104H2.73438V4.98047Z" fill="white"/>
</mask>
<g mask="url(#mask0_7_2)">
<path d="M19.2684 6.32784C18.0021 5.74666 16.6658 5.33217 15.2929 5.09473C15.2804 5.09246 15.2675 5.09415 15.2561 5.09959C15.2446 5.10502 15.2351 5.11391 15.229 5.12501C15.0573 5.43028 14.8671 5.82872 14.734 6.14181C13.2327 5.917 11.7393 5.917 10.2688 6.14181C10.1356 5.82169 9.93858 5.43028 9.76612 5.12501C9.75976 5.11409 9.75025 5.10535 9.73883 5.09995C9.72741 5.09454 9.71462 5.09272 9.70215 5.09473C8.32912 5.33163 6.99274 5.74614 5.72666 6.32784C5.71588 6.33253 5.70676 6.34036 5.70049 6.3503C3.16846 10.1331 2.4749 13.823 2.81514 17.4671C2.81721 17.4851 2.82634 17.5015 2.84053 17.5128C4.51104 18.7397 6.1293 19.4845 7.71748 19.9781C7.72984 19.9818 7.74301 19.9816 7.75526 19.9776C7.76751 19.9736 7.77824 19.9659 7.78604 19.9557C8.16172 19.4426 8.49658 18.9017 8.78379 18.3328C8.78775 18.325 8.79 18.3165 8.79042 18.3078C8.79083 18.299 8.78939 18.2903 8.78619 18.2822C8.78298 18.2741 8.77809 18.2667 8.77184 18.2606C8.76559 18.2545 8.75811 18.2498 8.7499 18.2468C8.21865 18.0452 7.71289 17.7996 7.22637 17.5206C7.21751 17.5154 7.21007 17.5081 7.2047 17.4993C7.19934 17.4905 7.19621 17.4806 7.1956 17.4703C7.195 17.46 7.19692 17.4498 7.20122 17.4404C7.20551 17.4311 7.21203 17.4229 7.22022 17.4167C7.32286 17.34 7.42373 17.2609 7.52276 17.1796C7.53144 17.1724 7.54194 17.1679 7.55308 17.1663C7.56422 17.1648 7.57557 17.1664 7.58584 17.171C10.7823 18.6304 14.2428 18.6304 17.4015 17.171C17.4118 17.1662 17.4233 17.1643 17.4346 17.1657C17.4459 17.1671 17.4566 17.1716 17.4654 17.1788C17.5646 17.2606 17.6657 17.3399 17.7688 17.4167C17.777 17.4229 17.7836 17.431 17.7879 17.4403C17.7923 17.4496 17.7943 17.4598 17.7937 17.4701C17.7932 17.4804 17.7902 17.4903 17.7849 17.4991C17.7796 17.508 17.7722 17.5153 17.7634 17.5206C17.2766 17.8049 16.7667 18.0475 16.2391 18.246C16.2309 18.2492 16.2235 18.254 16.2173 18.2602C16.2111 18.2664 16.2063 18.2739 16.2032 18.282C16.2001 18.2902 16.1987 18.299 16.1992 18.3077C16.1996 18.3165 16.202 18.325 16.206 18.3328C16.4981 18.8972 16.8313 19.4393 17.2028 19.9549C17.2104 19.9654 17.2211 19.9733 17.2334 19.9774C17.2457 19.9816 17.259 19.9819 17.2714 19.9781C18.8673 19.4845 20.4855 18.7397 22.1562 17.5128C22.1633 17.5075 22.1692 17.5008 22.1736 17.493C22.178 17.4853 22.1807 17.4767 22.1815 17.4679C22.5888 13.2549 21.4994 9.59522 19.2938 6.35108C19.2884 6.34051 19.2794 6.33225 19.2684 6.32784ZM9.26113 15.2483C8.29873 15.2483 7.50576 14.3648 7.50576 13.2797C7.50576 12.1946 8.2834 11.3111 9.26113 11.3111C10.2465 11.3111 11.0317 12.2024 11.0163 13.2797C11.0163 14.3648 10.2388 15.2483 9.26113 15.2483ZM15.751 15.2483C14.7886 15.2483 13.9957 14.3648 13.9957 13.2797C13.9957 12.1946 14.7732 11.3111 15.751 11.3111C16.7363 11.3111 17.5216 12.2024 17.5063 13.2797C17.5063 14.3648 16.7363 15.2483 15.751 15.2483Z" fill="white"/>
</g>
</g>
<defs>
<clipPath id="clip0_7_2">
<rect width="25" height="25" fill="white"/>
</clipPath>
</defs>
</svg>
